name ./resultDataOpenSim/trcMotMarkerGrf/sub09/grf-12-07.mot
datacolumns 19
datarows 12
range 0.94400000 0.98800000
endheader

                time	     ground_force_vx	     ground_force_vy	     ground_force_vz	     ground_force_px	     ground_force_py	     ground_force_pz	   l_ground_force_vx	   l_ground_force_vy	   l_ground_force_vz	   l_ground_force_px	   l_ground_force_py	   l_ground_force_pz	     ground_torque_x	     ground_torque_y	     ground_torque_z	   l_ground_torque_x	   l_ground_torque_y	   l_ground_torque_z	
          0.94400000	          0.00000000	          0.00000000	          0.00000000	          0.00000000	          0.00000000	          0.00000000	         -9.23245922	        348.30091420	          2.66449401	          0.11067641	         -0.02500000	          0.02421443	          0.00000000	          0.00000000	          0.00000000	          0.00000000	         -1.62615899	          0.00000000	
          0.94800000	          0.00000000	          0.00000000	          0.00000000	          0.00000000	          0.00000000	          0.00000000	         -8.33028451	        356.14311757	          3.24322525	          0.11195490	         -0.02500000	          0.02409544	          0.00000000	          0.00000000	          0.00000000	          0.00000000	         -1.75456370	          0.00000000	
          0.95200000	          0.00000000	          0.00000000	          0.00000000	          0.00000000	          0.00000000	          0.00000000	         -7.25502022	        364.69606764	          3.89921119	          0.11301002	         -0.02500000	          0.02386869	          0.00000000	          0.00000000	          0.00000000	          0.00000000	         -1.89843266	          0.00000000	
          0.95600000	          0.00000000	          0.00000000	          0.00000000	          0.00000000	          0.00000000	          0.00000000	         -6.03988038	        373.89397109	          4.61053496	          0.11392666	         -0.02500037	          0.02358057	          0.00000000	          0.00000000	          0.00000000	          0.00000000	         -2.05743776	          0.00000000	
          0.96000000	          0.00000000	          0.00000000	          0.00000000	          0.00000000	          0.00000000	          0.00000000	         -4.69862522	        383.60126490	          5.38249154	          0.11480937	         -0.02500077	          0.02330042	          0.00000000	          0.00000000	          0.00000000	          0.00000000	         -2.22877360	          0.00000000	
          0.96400000	          0.00000000	          0.00000000	          0.00000000	          0.00000000	          0.00000000	          0.00000000	         -3.21828638	        393.66109500	          6.25655266	          0.11577896	         -0.02500061	          0.02310184	          0.00000000	          0.00000000	          0.00000000	          0.00000000	         -2.40725919	          0.00000000	
          0.96800000	          0.00000000	          0.00000000	          0.00000000	          0.00000000	          0.00000000	          0.00000000	         -1.54847531	        403.97862597	          7.29588349	          0.11692933	         -0.02500055	          0.02303646	          0.00000000	          0.00000000	          0.00000000	          0.00000000	         -2.58592398	          0.00000000	
          0.97200000	          0.00000000	          0.00000000	          0.00000000	          0.00000000	          0.00000000	          0.00000000	          0.39652591	        414.55392183	          8.55780344	          0.11826153	         -0.02500071	          0.02310057	          0.00000000	          0.00000000	          0.00000000	          0.00000000	         -2.75695956	          0.00000000	
          0.97600000	          0.00000000	          0.00000000	          0.00000000	          0.00000000	          0.00000000	          0.00000000	          2.71644015	        425.45069395	         10.08191307	          0.11971251	         -0.02500087	          0.02324638	          0.00000000	          0.00000000	          0.00000000	          0.00000000	         -2.91309459	          0.00000000	
          0.98000000	          0.00000000	          0.00000000	          0.00000000	          0.00000000	          0.00000000	          0.00000000	          5.49412047	        436.75189114	         11.89038177	          0.12118114	         -0.02500100	          0.02340687	          0.00000000	          0.00000000	          0.00000000	          0.00000000	         -3.04943493	          0.00000000	
          0.98400000	          0.00000000	          0.00000000	          0.00000000	          0.00000000	          0.00000000	          0.00000000	          8.76205169	        448.52294227	         13.97640682	          0.12254831	         -0.02500100	          0.02351814	          0.00000000	          0.00000000	          0.00000000	          0.00000000	         -3.16549896	          0.00000000	
          0.98800000	          0.00000000	          0.00000000	          0.00000000	          0.00000000	          0.00000000	          0.00000000	         12.48584918	        460.77306033	         16.27468886	          0.12372240	         -0.02500100	          0.02355308	          0.00000000	          0.00000000	          0.00000000	          0.00000000	         -3.26681302	          0.00000000	
